<svg xmlns="http://www.w3.org/2000/svg" width="36" height="36" viewBox="0 0 36 36">
    <path fill="#26C173" fill-rule="evenodd" d="M7.5 0L.194 7.308l10.424 10.424.832-.832-9.591-9.592L7.5 1.665l9.59 9.591.833-.832L7.501 0zm25.053.246c-.823 0-1.644.313-2.27.936l-.496.499-.506-.504-4.364 4.365L3.463 26.995 0 36l9.007-3.46.087-.09L34.823 6.72l-.504-.507.5-.496c.949-.952 1.163-2.36.664-3.53h.338l-1.003-1.005a3.214 3.214 0 0 0-2.265-.936zm-.002 1.173c.517 0 1.035.198 1.432.598.798.795.798 2.07 0 2.865l-.499.501-2.867-2.867.501-.5c.398-.4.915-.6 1.433-.597zm-3.27 1.423l3.877 3.877L30.5 9.378 26.623 5.5l2.658-2.659zM8.089 4.365a.59.59 0 0 0 0 1.177.59.59 0 0 0 0-1.177zM6.323 6.13a.59.59 0 0 0 0 1.177.59.59 0 0 0 0-1.177zm3.532 0a.59.59 0 0 0 0 1.177.59.59 0 0 0 0-1.177zm15.894.243l3.877 3.878L9.064 30.814a2.325 2.325 0 0 0-.558-.963c-.433-.432-.978-.591-1.405-.676-.136-.028-.136-.014-.246-.028-.014-.11 0-.11-.028-.246-.085-.428-.244-.973-.676-1.405a2.325 2.325 0 0 0-.963-.559L25.749 6.374zM11.621 7.897a.59.59 0 0 0 0 1.177.59.59 0 0 0 0-1.177zm14.128 0a.59.59 0 0 0 0 1.177.59.59 0 0 0 0-1.177zM9.855 9.663a.59.59 0 0 0 0 1.177.59.59 0 0 0 0-1.177zm3.532 0a.59.59 0 0 0 0 1.177.59.59 0 0 0 0-1.177zm10.596 0a.59.59 0 0 0 0 1.177.59.59 0 0 0 0-1.177zm-8.83 1.766a.59.59 0 0 0 0 1.177.59.59 0 0 0 0-1.177zm7.064 0a.59.59 0 0 0 0 1.177.59.59 0 0 0 0-1.177zm-8.83 1.766a.59.59 0 0 0 0 1.177.59.59 0 0 0 0-1.177zm7.064 0a.59.59 0 0 0 0 1.177.59.59 0 0 0 0-1.177zm-1.766 1.766a.59.59 0 0 0 0 1.177.59.59 0 0 0 0-1.177zm-1.766 1.766a.59.59 0 0 0 0 1.178.59.59 0 0 0 0-1.178zm8.658 1.35l-.833.832 9.591 9.592-5.643 5.643-9.59-9.591-.833.832L28.692 35.81 36 28.501 25.577 18.077zm-10.424.416a.59.59 0 0 0 0 1.178.59.59 0 0 0 0-1.178zm-1.766 1.766a.59.59 0 0 0 0 1.178.59.59 0 0 0 0-1.178zm10.596.191a.588.588 0 1 0 0 1.177.588.588 0 0 0 0-1.177zm-12.362 1.575a.59.59 0 0 0 0 1.178.59.59 0 0 0 0-1.178zm14.128 0a.59.59 0 0 0 0 1.178.59.59 0 0 0 0-1.178zm-3.532.191a.588.588 0 1 0 0 1.177.588.588 0 0 0 0-1.177zM9.855 23.792a.59.59 0 0 0 0 1.177.59.59 0 0 0 0-1.177zm17.66.19a.588.588 0 1 0 0 1.177.588.588 0 0 0 0-1.177zM8.09 25.558a.59.59 0 0 0 0 1.177.59.59 0 0 0 0-1.177zm21.192 0a.59.59 0 0 0 0 1.177.59.59 0 0 0 0-1.177zm-3.532.19a.588.588 0 1 0 0 1.177.588.588 0 0 0 0-1.177zm5.298 1.767a.588.588 0 1 0 0 1.176.588.588 0 0 0 0-1.176zm-26.69.436c.056.01.097.012.16.023.307.063.645.198.802.355.156.156.292.494.354.802.062.308.062.547.062.547v.59h.588s.24 0 .548.061c.308.062.646.198.802.354.157.157.292.495.354.803.012.062.014.103.023.159l-4.079 1.568L2.79 32.03l1.568-4.08zm24.924 1.33a.588.588 0 1 0 0 1.176.588.588 0 0 0 0-1.176z"/>
</svg>
