<svg xmlns="http://www.w3.org/2000/svg" width="36" height="36" viewBox="0 0 36 36">
    <path fill="#26C173" fill-rule="evenodd" d="M0 0v10.8h10.8V0H0zm1.2 1.2h8.4v5.531L7.575 5.07 5.597 6.593l-2.35-1.936L1.2 5.995V1.2zm6.3 1.2a.9.9 0 1 0 0 1.8.9.9 0 0 0 0-1.8zm8.7.6a.601.601 0 0 0 0 1.2.601.601 0 0 0 0-1.2zm2.4 0a.601.601 0 0 0 0 1.2.601.601 0 0 0 0-1.2zM21 3a.601.601 0 0 0 0 1.2.601.601 0 0 0 0-1.2zm2.4 0a.601.601 0 0 0 0 1.2.601.601 0 0 0 0-1.2zm2.4 0a.601.601 0 0 0 0 1.2.601.601 0 0 0 0-1.2zm2.4 0a.601.601 0 0 0 0 1.2.601.601 0 0 0 0-1.2zm2.4 0a.601.601 0 0 0 0 1.2.601.601 0 0 0 0-1.2zM33 3a.601.601 0 0 0 0 1.2.601.601 0 0 0 0-1.2zm2.4 0a.601.601 0 0 0 0 1.2.601.601 0 0 0 0-1.2zM3.164 6.143L5.57 8.128l1.983-1.526L9.6 8.285V9.6H1.2V7.427l1.964-1.284zM16.2 6.6a.601.601 0 0 0 0 1.2.601.601 0 0 0 0-1.2zm2.4 0a.601.601 0 0 0 0 1.2.601.601 0 0 0 0-1.2zm2.4 0a.601.601 0 0 0 0 1.2.601.601 0 0 0 0-1.2zm2.4 0a.601.601 0 0 0 0 1.2.601.601 0 0 0 0-1.2zm2.4 0a.601.601 0 0 0 0 1.2.601.601 0 0 0 0-1.2zm2.4 0a.601.601 0 0 0 0 1.2.601.601 0 0 0 0-1.2zm2.4 0a.601.601 0 0 0 0 1.2.601.601 0 0 0 0-1.2zM0 12.6v10.8h10.8V12.6H0zm1.2 1.2h8.4v8.4H1.2v-8.4zM5.4 15a1.2 1.2 0 0 0-1.2 1.2c0 .056.019.124.035.19a.87.87 0 0 0-.176-.087 1.2 1.2 0 0 0-.743 2.28.725.725 0 0 0 .186.033.874.874 0 0 0-.132.134 1.202 1.202 0 0 0 1.943 1.413c.033-.047.059-.105.087-.166.026.06.054.12.087.166a1.201 1.201 0 0 0 1.94-1.413.777.777 0 0 0-.13-.134.706.706 0 0 0 .184-.032c.633-.204.978-.882.771-1.512a1.2 1.2 0 0 0-1.511-.769.87.87 0 0 0-.176.087c.016-.066.035-.134.035-.19A1.2 1.2 0 0 0 5.4 15zm10.8.6a.601.601 0 0 0 0 1.2.601.601 0 0 0 0-1.2zm2.4 0a.601.601 0 0 0 0 1.2.601.601 0 0 0 0-1.2zm2.4 0a.601.601 0 0 0 0 1.2.601.601 0 0 0 0-1.2zm2.4 0a.601.601 0 0 0 0 1.2.601.601 0 0 0 0-1.2zm2.4 0a.601.601 0 0 0 0 1.2.601.601 0 0 0 0-1.2zm2.4 0a.601.601 0 0 0 0 1.2.601.601 0 0 0 0-1.2zm2.4 0a.601.601 0 0 0 0 1.2.601.601 0 0 0 0-1.2zm2.4 0a.601.601 0 0 0 0 1.2.601.601 0 0 0 0-1.2zm2.4 0a.601.601 0 0 0 0 1.2.601.601 0 0 0 0-1.2zm-30 1.2a1.2 1.2 0 1 1 .001 2.399A1.2 1.2 0 0 1 5.4 16.8zm10.8 2.4a.601.601 0 0 0 0 1.2.601.601 0 0 0 0-1.2zm2.4 0a.601.601 0 0 0 0 1.2.601.601 0 0 0 0-1.2zm2.4 0a.601.601 0 0 0 0 1.2.601.601 0 0 0 0-1.2zm2.4 0a.601.601 0 0 0 0 1.2.601.601 0 0 0 0-1.2zm2.4 0a.601.601 0 0 0 0 1.2.601.601 0 0 0 0-1.2zm2.4 0a.601.601 0 0 0 0 1.2.601.601 0 0 0 0-1.2zm2.4 0a.601.601 0 0 0 0 1.2.601.601 0 0 0 0-1.2zM0 25.2V36h10.8V25.2H0zm1.2 1.2h8.4v8.4H1.2v-8.4zm4.2.6a.601.601 0 0 0 0 1.2.601.601 0 0 0 0-1.2zm10.8.6a.601.601 0 0 0 0 1.2.601.601 0 0 0 0-1.2zm2.4 0a.601.601 0 0 0 0 1.2.601.601 0 0 0 0-1.2zm2.4 0a.601.601 0 0 0 0 1.2.601.601 0 0 0 0-1.2zm2.4 0a.601.601 0 0 0 0 1.2.601.601 0 0 0 0-1.2zm2.4 0a.601.601 0 0 0 0 1.2.601.601 0 0 0 0-1.2zm2.4 0a.601.601 0 0 0 0 1.2.601.601 0 0 0 0-1.2zm2.4 0a.601.601 0 0 0 0 1.2.601.601 0 0 0 0-1.2zm2.4 0a.601.601 0 0 0 0 1.2.601.601 0 0 0 0-1.2zm2.4 0a.601.601 0 0 0 0 1.2.601.601 0 0 0 0-1.2zm-27.872.279a.604.604 0 0 0-.431.173.603.603 0 0 0 0 .851.604.604 0 0 0 .848 0 .603.603 0 0 0 0-.85.59.59 0 0 0-.417-.174zm-4.24 0a.603.603 0 0 0-.436.176.604.604 0 0 0 0 .848.603.603 0 0 0 .851 0 .604.604 0 0 0 0-.848.606.606 0 0 0-.415-.176zM5.4 28.8c-.987 0-1.8.813-1.8 1.8 0 .987.813 1.8 1.8 1.8.987 0 1.8-.813 1.8-1.8 0-.987-.813-1.8-1.8-1.8zm-3 1.2a.601.601 0 0 0 0 1.2.601.601 0 0 0 0-1.2zm3 0c.338 0 .6.262.6.6 0 .337-.262.6-.6.6a.592.592 0 0 1-.6-.6c0-.338.263-.6.6-.6zm3 0a.601.601 0 0 0 0 1.2.601.601 0 0 0 0-1.2zm7.8 1.2a.601.601 0 0 0 0 1.2.601.601 0 0 0 0-1.2zm2.4 0a.601.601 0 0 0 0 1.2.601.601 0 0 0 0-1.2zm2.4 0a.601.601 0 0 0 0 1.2.601.601 0 0 0 0-1.2zm2.4 0a.601.601 0 0 0 0 1.2.601.601 0 0 0 0-1.2zm2.4 0a.601.601 0 0 0 0 1.2.601.601 0 0 0 0-1.2zm2.4 0a.601.601 0 0 0 0 1.2.601.601 0 0 0 0-1.2zm2.4 0a.601.601 0 0 0 0 1.2.601.601 0 0 0 0-1.2zm-27.312.921a.6.6 0 1 0 .415.176.602.602 0 0 0-.415-.176zm4.242 0a.602.602 0 0 0-.433 1.024.6.6 0 1 0 .433-1.024zM5.4 33a.601.601 0 0 0 0 1.2.601.601 0 0 0 0-1.2z"/>
</svg>
