<?xml version="1.0" encoding="UTF-8"?>
<svg width="192px" height="48px" viewBox="0 0 192 48" version="1.1" xmlns="http://www.w3.org/2000/svg" xmlns:xlink="http://www.w3.org/1999/xlink">
    <!-- Generator: Sketch 59.1 (86144) - https://sketch.com -->
    <title>Group 2</title>
    <desc>Created with Sketch.</desc>
    <g id="Page-1" stroke="none" stroke-width="1" fill="none" fill-rule="evenodd">
        <g id="prable-landing" transform="translate(-405.000000, -40.000000)">
            <g id="Group-2" transform="translate(405.000000, 40.000000)">
                <g id="Group">
                    <path d="M68,39.6 L68,14.5752809 L73.4608476,14.5752809 L73.4608476,17.3438202 C74.9937247,15.2584165 76.9936204,14.2157303 79.4605946,14.2157303 C81.8557151,14.2157303 83.9154879,15.1086053 85.6399747,16.894382 C87.3644615,18.6801587 88.226692,21.1071008 88.226692,24.1752809 L88.226692,24.247191 C88.226692,27.3153711 87.3704492,29.7423132 85.657938,31.5280899 C83.9454268,33.3138666 81.8796663,34.2067416 79.4605946,34.2067416 C77.065474,34.2067416 75.0655783,33.2479497 73.4608476,31.3303371 L73.4608476,39.6 L68,39.6 Z M74.7182796,28.094382 C75.6284254,29.0771585 76.7421397,29.5685393 78.059456,29.5685393 C79.3767723,29.5685393 80.4904867,29.0771585 81.4006325,28.094382 C82.3107783,27.1116056 82.7658444,25.8292214 82.7658444,24.247191 L82.7658444,24.1752809 C82.7658444,22.6172207 82.3107783,21.3408289 81.4006325,20.3460674 C80.4904867,19.3513059 79.3767723,18.8539326 78.059456,18.8539326 C76.7421397,18.8539326 75.6344131,19.3513059 74.7362429,20.3460674 C73.8380727,21.3408289 73.3889943,22.6172207 73.3889943,24.1752809 L73.3889943,24.247191 C73.3889943,25.8052512 73.832085,27.0876354 74.7182796,28.094382 Z M92.2504744,33.847191 L92.2504744,14.5752809 L97.7113219,14.5752809 L97.7113219,18.458427 C98.9567846,15.5100976 101.004582,14.0958796 103.854775,14.2157303 L103.854775,19.9325843 L103.567362,19.9325843 C101.699168,19.9325843 100.25613,20.501867 99.2382037,21.6404494 C98.2202774,22.7790319 97.7113219,24.4748951 97.7113219,26.7280899 L97.7113219,33.847191 L92.2504744,33.847191 Z M112.728653,34.2067416 C110.836508,34.2067416 109.261739,33.6853985 108.004301,32.6426966 C106.746863,31.5999948 106.118153,30.1558145 106.118153,28.3101124 L106.118153,28.2382022 C106.118153,26.2007389 106.818715,24.6666718 108.219861,23.6359551 C109.621006,22.6052383 111.507136,22.0898876 113.878305,22.0898876 C115.483036,22.0898876 117.051816,22.3535554 118.584693,22.8808989 L118.584693,22.5573034 C118.584693,20.208228 117.20752,19.0337079 114.453131,19.0337079 C112.800498,19.0337079 111.028135,19.3812699 109.13599,20.0764045 L107.770778,15.905618 C110.117996,14.8749012 112.608884,14.3595506 115.243517,14.3595506 C118.141613,14.3595506 120.309164,15.0786445 121.746237,16.5168539 C123.135406,17.9071231 123.829981,19.9565408 123.829981,22.6651685 L123.829981,33.847191 L118.548767,33.847191 L118.548767,31.7617978 C117.087743,33.3917684 115.147725,34.2067416 112.728653,34.2067416 Z M114.381278,30.4314607 C115.650692,30.4314607 116.680578,30.1138609 117.470968,29.4786517 C118.261358,28.8434425 118.656546,28.0344618 118.656546,27.0516854 L118.656546,26.0808989 C117.626645,25.6014957 116.465029,25.3617978 115.171664,25.3617978 C113.998054,25.3617978 113.075947,25.5895108 112.405313,26.0449438 C111.734679,26.5003768 111.399367,27.1595462 111.399367,28.0224719 L111.399367,28.094382 C111.399367,28.8134867 111.674802,29.3827694 112.22568,29.8022472 C112.776558,30.2217249 113.495083,30.4314607 114.381278,30.4314607 Z M139.996964,34.2067416 C137.601843,34.2067416 135.601948,33.2479497 133.997217,31.3303371 L133.997217,33.847191 L128.536369,33.847191 L128.536369,7.6 L133.997217,7.6 L133.997217,17.3438202 C135.530094,15.2584165 137.52999,14.2157303 139.996964,14.2157303 C142.392085,14.2157303 144.451857,15.1086053 146.176344,16.894382 C147.900831,18.6801587 148.763061,21.1071008 148.763061,24.1752809 L148.763061,24.247191 C148.763061,27.3153711 147.906819,29.7423132 146.194307,31.5280899 C144.481796,33.3138666 142.416036,34.2067416 139.996964,34.2067416 Z M135.254649,28.094382 C136.164795,29.0771585 137.278509,29.5685393 138.595825,29.5685393 C139.913142,29.5685393 141.026856,29.0771585 141.937002,28.094382 C142.847148,27.1116056 143.302214,25.8292214 143.302214,24.247191 L143.302214,24.1752809 C143.302214,22.6172207 142.847148,21.3408289 141.937002,20.3460674 C141.026856,19.3513059 139.913142,18.8539326 138.595825,18.8539326 C137.278509,18.8539326 136.170782,19.3513059 135.272612,20.3460674 C134.374442,21.3408289 133.925364,22.6172207 133.925364,24.1752809 L133.925364,24.247191 C133.925364,25.8052512 134.368454,27.0876354 135.254649,28.094382 Z M153.03833,33.847191 L153.03833,7.6 L158.499178,7.6 L158.499178,33.847191 L153.03833,33.847191 Z M172.762049,34.2786517 C169.840002,34.2786517 167.432942,33.349822 165.540797,31.4921348 C163.648652,29.6344476 162.702593,27.2434603 162.702593,24.3191011 L162.702593,24.247191 C162.702593,21.4426826 163.60075,19.0696726 165.39709,17.1280899 C167.193431,15.1865071 169.468761,14.2157303 172.22315,14.2157303 C175.264953,14.2157303 177.588185,15.2224618 179.192916,17.2359551 C180.797647,19.2494483 181.6,21.7303223 181.6,24.6786517 C181.6,24.9662936 181.576049,25.4456895 181.528147,26.1168539 L168.127514,26.1168539 C168.390977,27.339332 168.929872,28.2741541 169.744213,28.9213483 C170.558554,29.5685426 171.58844,29.8921348 172.833903,29.8921348 C174.534438,29.8921348 176.091243,29.2329654 177.504364,27.9146067 L180.629981,30.6831461 C178.689933,33.0801618 176.067316,34.2786517 172.762049,34.2786517 Z M168.055661,22.7011236 L176.282859,22.7011236 C176.115201,21.4546754 175.678098,20.4599288 174.971537,19.7168539 C174.264976,18.9737791 173.348857,18.6022472 172.22315,18.6022472 C171.121394,18.6022472 170.205275,18.9677866 169.474763,19.6988764 C168.744251,20.4299662 168.271222,21.4307053 168.055661,22.7011236 Z" id="text" fill="#FFFFFF" fill-rule="nonzero"></path>
                    <g id="icon" fill="#26C173">
                        <path d="M24,-2.27373675e-13 C37.254834,-2.27373675e-13 48,10.745166 48,24 C48,37.254834 37.254834,48 24,48 C10.745166,48 0,37.254834 0,24 L-3.64153152e-14,-2.27373675e-13 L24,-2.27373675e-13 Z M24,5.332 L5.331,5.331 L5.332,24 L5.332,24 L5.33495399,24.3342756 C5.51391347,34.4888844 13.8014696,42.6656 23.9988,42.6656 C34.308189,42.6656 42.6656,34.308189 42.6656,23.9988 C42.6656,13.690078 34.3092704,5.33308145 24.000801,5.3320001 L24,5.332 Z M30.3758669,13.8322437 L33.5699588,10.642313 C35.000662,11.7126452 36.2726852,12.983449 37.3443782,14.4130742 L34.1604749,17.5913131 C35.3380692,19.4463358 36.0199134,21.6462686 36.0199134,24.0052529 C36.0199134,30.6297688 30.6428726,36 24.0099567,36 C17.3770408,36 12,30.6297688 12,24.0052529 C12,17.380737 17.3770408,12.0105059 24.0099567,12.0105059 C26.3481698,12.0105059 28.5303178,12.6778536 30.3758669,13.8322437 L33.5699588,10.642313 Z M24.0099567,17.6080545 C20.4724015,17.6080545 17.6046465,20.4721778 17.6046465,24.0052529 C17.6046465,27.5383281 20.4724015,30.4024514 24.0099567,30.4024514 C27.5475118,30.4024514 30.4152669,27.5383281 30.4152669,24.0052529 C30.4152669,20.4721778 27.5475118,17.6080545 24.0099567,17.6080545 Z M44.2265783,-1.62772573e-13 L48,3.76864293 L44.3487971,7.41583671 C43.2349938,6.02401532 41.9694297,4.7589166 40.5771848,3.64562053 L44.2265783,-1.62772573e-13 Z" id="Combined-Shape"></path>
                    </g>
                </g>
                <path d="M183.062661,12.4 L183.062661,8.57371429 L181.6,8.57371429 L181.6,7.6 L185.582833,7.6 L185.582833,8.57371429 L184.120172,8.57371429 L184.120172,12.4 L183.062661,12.4 Z M186.393133,12.4 L186.393133,7.6 L187.533047,7.6 L188.796567,9.62971429 L190.060086,7.6 L191.2,7.6 L191.2,12.4 L190.149356,12.4 L190.149356,9.26628571 L188.796567,11.3165714 L188.769099,11.3165714 L187.430043,9.28685714 L187.430043,12.4 L186.393133,12.4 Z" id="TM" fill="#26C173" fill-rule="nonzero"></path>
            </g>
        </g>
    </g>
</svg>