<svg xmlns="http://www.w3.org/2000/svg" width="46" height="26" viewBox="0 0 46 26">
    <path fill="#26C173" fill-rule="evenodd" d="M2.4 0A2.41 2.41 0 0 0 0 2.4v21a2.41 2.41 0 0 0 2.4 2.4h4.8a.6.6 0 1 0 0-1.2H2.4c-.67 0-1.2-.53-1.2-1.2v-21c0-.67.53-1.2 1.2-1.2h40.8c.67 0 1.2.53 1.2 1.2v21c0 .67-.53 1.2-1.2 1.2h-4.8a.6.6 0 1 0 0 1.2h4.8a2.41 2.41 0 0 0 2.4-2.4v-21A2.41 2.41 0 0 0 43.2 0H2.4zm27.9 4.2a6.31 6.31 0 0 0-6.3 6.3 6.31 6.31 0 0 0 6.3 6.3 6.27 6.27 0 0 0 4.008-1.445l1.455 1.457-.022.022a1.163 1.163 0 0 0 0 1.644l2.782 2.782c.22.22.511.34.822.34.31 0 .603-.121.822-.341l.893-.893a1.164 1.164 0 0 0 0-1.644l-2.78-2.781c-.441-.44-1.208-.44-1.646 0l-.022.022-1.456-1.456A6.27 6.27 0 0 0 36.6 10.5a6.31 6.31 0 0 0-6.3-6.3zm0 1.2a5.09 5.09 0 0 1 5.1 5.1 5.09 5.09 0 0 1-5.1 5.1 5.09 5.09 0 0 1-5.1-5.1 5.09 5.09 0 0 1 5.1-5.1zm7.13 11.39l2.782 2.728-.842.893-2.755-2.756.815-.866zM9.6 24.6a.6.6 0 1 0 0 1.2.6.6 0 0 0 0-1.2zm2.4 0a.6.6 0 1 0 0 1.2.6.6 0 0 0 0-1.2zm2.4 0a.6.6 0 1 0 0 1.2.6.6 0 0 0 0-1.2zm2.4 0a.6.6 0 1 0 0 1.2.6.6 0 0 0 0-1.2zm2.4 0a.6.6 0 1 0 0 1.2.6.6 0 0 0 0-1.2zm2.4 0a.6.6 0 1 0 0 1.2.6.6 0 0 0 0-1.2zm2.4 0a.6.6 0 1 0 0 1.2.6.6 0 0 0 0-1.2zm2.4 0a.6.6 0 1 0 0 1.2.6.6 0 0 0 0-1.2zm2.4 0a.6.6 0 1 0 0 1.2.6.6 0 0 0 0-1.2zm2.4 0a.6.6 0 1 0 0 1.2.6.6 0 0 0 0-1.2zm2.4 0a.6.6 0 1 0 0 1.2.6.6 0 0 0 0-1.2zm2.4 0a.6.6 0 1 0 0 1.2.6.6 0 0 0 0-1.2z"/>
</svg>
