<svg xmlns="http://www.w3.org/2000/svg" width="40" height="40" viewBox="0 0 40 40">
    <path fill="#26C173" fill-rule="evenodd" d="M19.8 0C8.872 0 0 8.872 0 19.8c0 9.92 7.314 18.125 16.841 19.556l.69.103V24.89h-4.752V21.04h4.751v-3.357c0-2.683.648-4.509 1.765-5.671s2.76-1.731 4.965-1.731c1.889 0 2.717.12 3.338.202v3.242h-2.552a2.92 2.92 0 0 0-2.579 1.494c-.498.87-.668 1.949-.668 3.062v2.759h5.651l-.595 3.847H21.8v14.603l.681-.093C32.144 38.088 39.6 29.818 39.6 19.8 39.6 8.872 30.728 0 19.8 0zm0 1.2c10.28 0 18.6 8.32 18.6 18.6 0 9.18-6.663 16.727-15.4 18.252v-1.765a.6.6 0 0 0 0-1.196v-9.003h4.884l.965-6.247H23v-1.559c0-.982.174-1.88.509-2.465s.747-.89 1.538-.89h3.752v-5.53l-.52-.07c-.55-.075-1.775-.245-4.018-.245-2.416 0-4.438.652-5.83 2.1-1.392 1.448-2.1 3.624-2.1 6.502v2.157h-4.75v6.247h4.75v9.087a.6.6 0 0 0 0 1.027V38C7.727 36.367 1.2 28.884 1.2 19.8 1.2 9.52 9.52 1.2 19.8 1.2zm0 1.8a.6.6 0 1 0 0 1.2.6.6 0 0 0 0-1.2zm-3.16.312a.6.6 0 1 0 0 1.2.6.6 0 0 0 0-1.2zm6.32 0a.6.6 0 1 0 0 1.2.6.6 0 0 0 0-1.2zm-9.36.92a.6.6 0 1 0 0 1.2.6.6 0 0 0 0-1.2zm12.4 0a.6.6 0 1 0 0 1.2.6.6 0 0 0 0-1.2zM10.8 5.73a.6.6 0 1 0 0 1.2.6.6 0 0 0 0-1.2zm18 0a.6.6 0 1 0 0 1.2.6.6 0 0 0 0-1.2zM8.345 7.745a.6.6 0 1 0 0 1.2.6.6 0 0 0 0-1.2zm22.91 0a.6.6 0 1 0 0 1.2.6.6 0 0 0 0-1.2zM6.33 10.2a.6.6 0 1 0 0 1.2.6.6 0 0 0 0-1.2zm26.94 0a.6.6 0 1 0 0 1.2.6.6 0 0 0 0-1.2zM4.833 13a.6.6 0 1 0 0 1.2.6.6 0 0 0 0-1.2zm29.934 0a.6.6 0 1 0 0 1.2.6.6 0 0 0 0-1.2zM3.912 16.04a.6.6 0 1 0 0 1.2.6.6 0 0 0 0-1.2zm31.776 0a.6.6 0 1 0 0 1.2.6.6 0 0 0 0-1.2zM3.6 19.2a.6.6 0 1 0 0 1.2.6.6 0 0 0 0-1.2zm32.4 0a.6.6 0 1 0 0 1.2.6.6 0 0 0 0-1.2zM3.912 22.36a.6.6 0 1 0 0 1.2.6.6 0 0 0 0-1.2zm31.776 0a.6.6 0 1 0 0 1.2.6.6 0 0 0 0-1.2zM4.833 25.4a.6.6 0 1 0 0 1.2.6.6 0 0 0 0-1.2zm29.934 0a.6.6 0 1 0 0 1.2.6.6 0 0 0 0-1.2zM6.33 28.2a.6.6 0 1 0 0 1.2.6.6 0 0 0 0-1.2zm26.94 0a.6.6 0 1 0 0 1.2.6.6 0 0 0 0-1.2zM8.345 30.655a.6.6 0 1 0 0 1.2.6.6 0 0 0 0-1.2zm22.91 0a.6.6 0 1 0 0 1.2.6.6 0 0 0 0-1.2zM10.8 32.67a.6.6 0 1 0 0 1.2.6.6 0 0 0 0-1.2zm18 0a.6.6 0 1 0 0 1.2.6.6 0 0 0 0-1.2zm-15.2 1.497a.6.6 0 1 0 0 1.2.6.6 0 0 0 0-1.2zm12.4 0a.6.6 0 1 0 0 1.2.6.6 0 0 0 0-1.2z"/>
</svg>
