<svg xmlns="http://www.w3.org/2000/svg" width="40" height="33" viewBox="0 0 40 33">
    <path fill="#26C173" fill-rule="evenodd" d="M2.4 0A2.41 2.41 0 0 0 0 2.4v30h39.6v-30A2.41 2.41 0 0 0 37.2 0H2.4zm0 1.2h34.8c.67 0 1.2.53 1.2 1.2v7.2H1.2V2.4c0-.67.53-1.2 1.2-1.2zm3 1.8A2.41 2.41 0 0 0 3 5.4a2.41 2.41 0 0 0 2.4 2.4c.718 0 1.359-.328 1.8-.833A2.387 2.387 0 0 0 9 7.8a2.41 2.41 0 0 0 2.4-2.4A2.41 2.41 0 0 0 9 3c-.718 0-1.359.328-1.8.833A2.387 2.387 0 0 0 5.4 3zm7.8 0v4.8h23.4V3H13.2zM5.4 4.2c.67 0 1.2.53 1.2 1.2 0 .67-.53 1.2-1.2 1.2-.67 0-1.2-.53-1.2-1.2 0-.67.53-1.2 1.2-1.2zm3.6 0c.67 0 1.2.53 1.2 1.2 0 .67-.53 1.2-1.2 1.2-.67 0-1.2-.53-1.2-1.2 0-.67.53-1.2 1.2-1.2zm5.4 0h21v2.4h-21V4.2zM1.2 10.8h37.2v20.4H1.2V10.8zm9.9 3a3.309 3.309 0 0 0-3.3 3.3c0 1.026.474 1.946 1.214 2.552A5.106 5.106 0 0 0 6 24.3v.3h1.2v-.3a3.89 3.89 0 0 1 3.9-3.9 3.89 3.89 0 0 1 3.9 3.9v.3h1.2v-.3a5.106 5.106 0 0 0-3.014-4.648A3.296 3.296 0 0 0 14.4 17.1v-.6h-.122c-.293-1.52-1.575-2.7-3.178-2.7zm8.7.6v1.2h13.8v-1.2H19.8zm-8.7.6c1.168 0 2.1.932 2.1 2.1a2.09 2.09 0 0 1-2.1 2.1A2.09 2.09 0 0 1 9 17.1c0-1.168.932-2.1 2.1-2.1zm8.7 2.4v1.2h11.4v-1.2H19.8zm0 3v1.2h13.8v-1.2H19.8zm0 3v1.2h11.4v-1.2H19.8zM4.2 27.6a.601.601 0 0 0 0 1.2.601.601 0 0 0 0-1.2zm2.4 0a.601.601 0 0 0 0 1.2.601.601 0 0 0 0-1.2zm2.4 0a.601.601 0 0 0 0 1.2.601.601 0 0 0 0-1.2zm2.4 0a.601.601 0 0 0 0 1.2.601.601 0 0 0 0-1.2zm2.4 0a.601.601 0 0 0 0 1.2.601.601 0 0 0 0-1.2zm2.4 0a.601.601 0 0 0 0 1.2.601.601 0 0 0 0-1.2zm2.4 0a.601.601 0 0 0 0 1.2.601.601 0 0 0 0-1.2zm2.4 0a.601.601 0 0 0 0 1.2.601.601 0 0 0 0-1.2zm2.4 0a.601.601 0 0 0 0 1.2.601.601 0 0 0 0-1.2zm2.4 0a.601.601 0 0 0 0 1.2.601.601 0 0 0 0-1.2zm2.4 0a.601.601 0 0 0 0 1.2.601.601 0 0 0 0-1.2zm2.4 0a.601.601 0 0 0 0 1.2.601.601 0 0 0 0-1.2zm2.4 0a.601.601 0 0 0 0 1.2.601.601 0 0 0 0-1.2zm2.4 0a.601.601 0 0 0 0 1.2.601.601 0 0 0 0-1.2z"/>
</svg>
