<svg xmlns="http://www.w3.org/2000/svg" width="40" height="33" viewBox="0 0 40 33">
    <path fill="#26C173" fill-rule="evenodd" d="M2.4 0A2.402 2.402 0 0 0 0 2.4v24.156c.362-.253.766-.45 1.2-.579V2.4c0-.662.538-1.2 1.2-1.2h34.8c.662 0 1.2.538 1.2 1.2v28.8H6.423a4.168 4.168 0 0 1-.579 1.2H39.6v-30c0-1.324-1.076-2.4-2.4-2.4H2.4zm36 6.6a.6.6 0 1 0-1.2 0 .6.6 0 0 0 1.2 0zm-37.2 0a.6.6 0 1 0 1.2 0 .6.6 0 0 0-1.2 0zm2.4-4.2a1.2 1.2 0 1 0 0 2.4 1.2 1.2 0 0 0 0-2.4zm3.6 0a1.2 1.2 0 1 0 0 2.4 1.2 1.2 0 0 0 0-2.4zm3.6 0a1.2 1.2 0 1 0 0 2.4 1.2 1.2 0 0 0 0-2.4zM4.2 6a.6.6 0 1 0 0 1.2.6.6 0 0 0 0-1.2zm2.4 0a.6.6 0 1 0 0 1.2.6.6 0 0 0 0-1.2zM9 6a.6.6 0 1 0 0 1.2A.6.6 0 0 0 9 6zm2.4 0a.6.6 0 1 0 0 1.2.6.6 0 0 0 0-1.2zm2.4 0a.6.6 0 1 0 0 1.2.6.6 0 0 0 0-1.2zm2.4 0a.6.6 0 1 0 0 1.2.6.6 0 0 0 0-1.2zm2.4 0a.6.6 0 1 0 0 1.2.6.6 0 0 0 0-1.2zM21 6a.6.6 0 1 0 0 1.2.6.6 0 0 0 0-1.2zm2.4 0a.6.6 0 1 0 0 1.2.6.6 0 0 0 0-1.2zm2.4 0a.6.6 0 1 0 0 1.2.6.6 0 0 0 0-1.2zm2.4 0a.6.6 0 1 0 0 1.2.6.6 0 0 0 0-1.2zm2.4 0a.6.6 0 1 0 0 1.2.6.6 0 0 0 0-1.2zM33 6a.6.6 0 1 0 0 1.2.6.6 0 0 0 0-1.2zm2.4 0a.6.6 0 1 0 0 1.2.6.6 0 0 0 0-1.2zm-4.2 4.8a2.41 2.41 0 0 0-2.4 2.4c0 .442.13.853.341 1.21l-8.13 8.131A2.365 2.365 0 0 0 19.8 22.2c-.442 0-.853.13-1.21.341l-2.731-2.73c.212-.358.341-.769.341-1.211a2.41 2.41 0 0 0-2.4-2.4 2.41 2.41 0 0 0-2.4 2.4c0 .442.13.853.341 1.21l-8.13 8.131A2.365 2.365 0 0 0 2.4 27.6 2.41 2.41 0 0 0 0 30a2.41 2.41 0 0 0 2.4 2.4A2.41 2.41 0 0 0 4.8 30c0-.442-.13-.853-.341-1.21l8.13-8.131c.358.212.769.341 1.211.341.442 0 .853-.13 1.21-.341l2.731 2.73A2.365 2.365 0 0 0 17.4 24.6a2.41 2.41 0 0 0 2.4 2.4 2.41 2.41 0 0 0 2.4-2.4c0-.442-.13-.853-.341-1.21l8.13-8.131c.358.212.769.341 1.211.341a2.41 2.41 0 0 0 2.4-2.4 2.41 2.41 0 0 0-2.4-2.4zm0 1.2c.67 0 1.2.53 1.2 1.2 0 .67-.53 1.2-1.2 1.2-.67 0-1.2-.53-1.2-1.2 0-.67.53-1.2 1.2-1.2zm-17.4 5.4c.67 0 1.2.53 1.2 1.2 0 .67-.53 1.2-1.2 1.2-.67 0-1.2-.53-1.2-1.2 0-.67.53-1.2 1.2-1.2zm6 6c.67 0 1.2.53 1.2 1.2 0 .67-.53 1.2-1.2 1.2-.67 0-1.2-.53-1.2-1.2 0-.67.53-1.2 1.2-1.2zM2.4 28.8c.67 0 1.2.53 1.2 1.2 0 .67-.53 1.2-1.2 1.2-.67 0-1.2-.53-1.2-1.2 0-.67.53-1.2 1.2-1.2z"/>
</svg>
